<?xml version="1.0" encoding="UTF-8" standalone="no"?><!-- Generator: Gravit.io --><svg xmlns="http://www.w3.org/2000/svg" xmlns:xlink="http://www.w3.org/1999/xlink" style="isolation:isolate" viewBox="0 0 1092 1092" width="1092pt" height="1092pt"><g><circle vector-effect="non-scaling-stroke" cx="544" cy="546" r="536" fill="rgb(254,254,254)"/><path d=" M 546 0 C 848 0 1092 245 1092 546 C 1092 848 847 1092 546 1092 C 244 1092 0 847 0 546 C 0 244 245 0 546 0 Z  M 465 333 L 465 136 C 465 127 468 120 474 114 C 480 108 488 105 496 105 L 599 105 C 608 105 615 108 621 114 C 627 120 630 128 630 136 L 630 333 C 630 342 627 349 621 355 C 615 361 607 364 598 364 L 495 364 C 486 364 479 361 472 355 C 466 349 463 341 463 333 L 465 333 Z  M 599 332 L 599 137 L 498 137 L 498 332 L 599 332 Z  M 503 930 L 554 930 L 554 735 L 504 735 C 499 735 496 733 492 730 C 489 727 487 723 487 718 C 487 713 489 710 492 706 C 495 703 499 701 504 701 L 587 701 L 587 929 L 620 929 L 620 860 C 620 856 622 852 625 848 C 628 845 632 843 637 843 C 642 843 645 845 649 848 C 652 851 654 855 654 860 L 654 945 C 654 950 652 954 649 957 C 646 960 642 962 637 962 L 504 962 C 499 962 496 960 492 957 C 489 954 487 950 487 945 C 487 941 489 937 492 934 C 495 931 499 929 504 929 L 503 930 Z  M 541 28 C 538 28 536 28 533 28 C 251 32 23 263 23 546 C 23 830 251 1060 534 1064 C 394 1060 282 946 282 805 C 282 662 398 546 541 546 C 684 546 800 430 800 287 C 800 144 684 28 541 28 Z " fill-rule="evenodd" fill="rgb(0,0,0)"/></g></svg>